Patient4_TMGait_0pt4_01_right_02_EMG.mot
version=1
nRows=33
nColumns=33
inDegrees=no
endheader
time	1LAddLong	2LGlutMax	3LGlutMed	4LIliopsoas	5LSemiMemb	6LBicFemLong	7LRecFem	8LVastMed	9LVastLat	10LGasMed	11LTibAnt	12lTibPost	13LPeroneusLong	14LSol	15LExtDigLong	16LFlexDigLong	17RAddLong	18RGlutMax	19RGlutMed	20RIliopsoas	21RSemiMemb	22RBicFemLong	23RRecFem	24RVastMed	25RVastLat	26RGasMed	27RTibAnt	28RTibPost	29RPeroneusLong	30RSol	31RExtDigLong	32RFlexDigLong
3.04	0.006104	-0.018158	-0.013275	0.006409	-0.022736	-0.42343	0.13351	-0.005341	0.14282	0.006866	0.01297	0.006714	-0.19211	-0.019073	0.000153	0.007629	0.021515	-0.10269	0.11795	-0.061951	-0.12604	0.016632	-0.24674	-0.027771	-0.053864	0.018463	0.14511	-0.020599	0.24338	-0.17105	-0.005341	-0.023193
3.041	0.005646	-0.012054	0.13534	0.020752	-0.021667	-0.25803	0.15213	-0.000916	0.15686	-0.007935	-0.008392	0.01236	-0.099792	-0.002136	0.024719	0.007172	-0.009613	-0.067444	0.34561	-0.07431	-0.25482	-0.009155	-0.24124	-0.007324	-0.031433	0.005188	0.049591	-0.023956	-0.1294	-0.25742	-0.001831	-0.023651
3.042	-0.01709	-0.064545	0.09552	0.00824	-0.032959	-0.057526	0.13519	0.012665	0.18387	-0.004425	-0.008545	0.011902	0.2182	-0.031586	0.00351	0.00351	-0.008087	-0.077057	-0.24674	-0.081329	-0.19104	0.001373	-0.28854	0.025635	-0.019531	-0.027313	0.066071	0.029602	-0.25406	-0.23514	-0.001678	-0.032349
3.043	-0.021515	-0.04837	0.10574	0.002594	-0.047302	-0.010376	0.14633	0.013275	0.14923	0.012512	-0.027008	0.014191	0.30823	0.01297	0.023499	0.008545	-0.008392	-0.11017	-0.057831	-0.059814	-0.13916	0.051727	-0.27481	0.012512	-0.033264	-0.046387	0.015564	-0.14648	-0.53238	-0.58518	-0.001526	-0.034943
3.044	-0.023041	-0.045319	0.072937	0.006409	-0.045624	0.043182	0.18662	0.014954	0.12634	-0.001831	-0.029602	0.015106	-0.10452	0.005341	0.018005	-0.003662	-0.032043	-0.13123	-0.067291	0.056763	-0.027008	0.10422	-0.25711	0.070953	-0.036774	-0.008698	-0.11322	-0.5307	-1.0028	-0.96008	-0.005188	-0.026703
3.045	-0.02121	-0.005341	0.080261	0.007629	-0.030212	0.10574	0.28244	0.015869	0.1532	0.003662	-0.027008	0.026398	0.3923	-0.046234	-0.015564	-0.004425	-0.030518	-0.064392	-0.11093	0.079193	0.43106	0.058594	-0.21973	0.079803	-0.063477	-0.022278	0.00061	0.010071	-0.59708	-0.57434	-0.005341	-0.030823
3.046	-0.025787	-0.032959	0.054626	0.000763	-0.083466	0.13123	0.30365	0.005188	0.14755	0.010834	-0.028839	0.027924	-0.16022	0.06546	0.026703	0.006104	-0.009613	-0.037994	-0.2684	0.013275	0.30228	-0.019379	-0.13001	0.072784	-0.035248	-0.024109	0.00061	0.36346	0.002747	-0.64255	-0.002441	-0.023193
3.047	-0.001373	-0.069885	0.058136	0.016479	-0.1265	0.10284	0.23224	0.009766	0.1329	0.034027	-0.000916	0.026703	-0.30258	-0.003204	0.033569	-0.009766	-0.008087	-0.12482	-0.16007	-0.1239	0.13718	-0.049133	-0.06134	0.001678	-0.051117	-0.003052	-0.093536	0.16357	0.34256	-0.34363	-0.002594	-0.012207
3.048	0.014648	-0.042114	0.049133	0.022888	-0.055084	0.007019	0.18707	0.000305	0.15549	0.012665	0.009918	0.034637	-0.014496	-0.064087	0.036926	-0.019379	-0.013428	-0.10056	0.1268	-0.096436	0.088348	-0.000458	-0.25467	-0.028076	-0.14694	-0.001831	-0.12238	-0.19882	0.18173	-0.11536	-0.003967	-0.016174
3.049	0.010834	-0.06485	0.041351	0.014191	-0.023499	0.014191	0.26154	0.012665	0.1001	-0.002594	0.001678	0.037384	0.14801	-0.056763	0.059662	-0.019836	0.005798	-0.062408	-0.25681	0.000153	0.10498	0.029907	-0.55176	-0.17685	-0.14145	-0.014038	-0.15167	0.26062	0.20615	0.71457	-0.002441	-0.020905
3.05	-0.000153	-0.020294	0.016479	0.014954	0.11185	0.023193	0.24307	0.015259	0.06958	-0.007782	-0.007324	0.050049	-0.014954	-0.027924	0.031586	-0.010223	0.046539	-0.1004	-0.052795	0.10559	0.10727	0.017548	-0.26642	-0.22324	-0.15793	-0.014343	-0.20309	0.21683	0.14725	0.58777	-0.001526	-0.026245
3.051	0.001984	-0.039368	0.023804	0.011597	0.14893	-0.009613	0.2034	0.005646	-0.02243	0.038147	0.040741	0.066681	0.061188	-0.027313	0.031891	-0.005188	0.051422	-0.14328	-0.020294	0.029602	-0.018921	0.052185	-0.16495	-0.14267	-0.18219	0.001221	-0.25696	0.068054	0.38132	0.4834	-0.003662	-0.028839
3.052	0.002899	-0.038147	0.029907	0.012665	0.11276	-0.075073	0.18692	0.007477	-0.14084	0.048676	0.061951	0.081177	0.067444	-0.041504	0.056763	-0.009308	0.036316	-0.16754	-0.19211	0.028687	-0.16663	0.15305	-0.37903	-0.13229	-0.13199	0.006714	-0.40466	0.048065	0.39566	0.62866	-0.003967	-0.014648
3.053	-0.007935	-0.038605	-0.004883	0.006104	0.017548	-0.17197	0.23834	0.001984	-0.18356	0.054169	0.064392	0.090027	-0.12436	0.006256	0.087585	-0.022125	0.01358	-0.17838	0.53146	-0.016937	-0.24796	0.11337	-0.47928	-0.082245	-0.077515	-0.006714	-0.27145	-0.10391	0.24704	0.58182	-0.007935	-0.013733
3.054	-0.002747	-0.037384	-0.005341	0.011749	0.010529	-0.22064	0.26535	-0.009918	-0.16022	0.026855	0.11841	0.095978	-0.074005	0.078583	0.03952	-0.014801	-0.002441	-0.20371	0.21011	0.039215	0.20035	0.003662	-0.46173	0.12421	-0.002899	-0.005646	0.25024	-0.085449	0.22705	0.60593	-0.003357	-0.010681
3.055	0.024567	-0.037842	-0.015411	0.00885	-0.016174	-0.17807	0.22568	-0.010986	-0.14038	-0.049133	0.12756	0.090179	0.00946	0.15869	0.049438	-0.007782	-0.03418	-0.17822	-0.033417	0.11459	0.25177	-0.025482	-0.45151	0.17883	0.024261	0.011139	0.45639	0.12131	0.21744	0.44922	-0.002899	-0.012207
3.056	0.025177	-0.021362	0.036163	0.005188	0.008698	-0.14603	0.23666	-0.008545	-0.058136	-0.019989	0.069427	0.075531	-0.11826	0.059814	0.052338	-0.016479	-0.028229	-0.20096	0.22644	0.2356	-0.010071	-0.02533	-0.43854	0.1471	0.066376	0.027924	0.089417	0.036011	0.11215	0.21072	-0.002441	-0.011597
3.057	0.023499	-0.04837	0.037231	0.009308	0.058594	-0.07782	0.31494	-0.011139	0.040894	0.022125	0.06958	0.061035	-0.31418	0.019989	0.19836	-0.019684	-0.014191	-0.2121	0.28168	0.11429	0.050659	-0.059204	-0.45303	0.041809	0.036621	0.027008	-0.12497	0.008392	-0.016632	0.10468	-0.001678	-0.017853
3.058	0.008698	-0.021667	0.030823	0.013123	0.059662	-0.044098	0.37399	0	0.055847	0.018616	-0.037537	0.043945	-0.085602	0.041656	0.37796	-0.021667	0.006104	-0.26932	0.45593	-0.049133	-0.020447	-0.034027	-0.44922	0.089722	0.056763	0.006866	0.047455	-0.013885	-0.06134	0.12604	-0.003662	-0.018921
3.059	0.003204	-0.019226	0.010529	0.008698	0.044861	-0.039215	0.36499	0.00351	0.01297	0.003815	-0.043793	0.022278	-0.033417	0.082397	-0.085754	-0.02594	0.014191	-0.2063	-0.12909	-0.045319	-0.17181	-0.036774	-0.4863	0.10437	0.043945	-0.035858	0.14664	-0.013275	-0.034332	0.13931	-0.001831	-0.019073
3.06	-0.003357	0.045166	-0.01358	0.012207	0.034332	-0.005035	0.31021	-0.001221	-0.012817	-0.01709	-0.08255	0.012054	-0.046387	0.082397	-0.080109	-0.017853	0.028839	-0.18921	-0.28564	-0.046997	-0.1355	-0.019684	-0.48431	0.081024	0.026093	-0.009308	0.099945	-0.028534	0.001678	0.13565	-0.002441	-0.019531
3.061	-0.006256	0.012665	0.00061	0.019379	0.012512	0.052338	0.27664	0.016937	-0.061493	-0.018158	-0.10346	0.004883	-0.037689	0.046234	-0.65277	-0.016632	0.04715	-0.23773	-0.21194	-0.08194	0.13229	0.049438	-0.4509	0.030823	0.018768	-0.005188	0.070953	-0.036316	-0.039063	0.19821	-0.00473	-0.023499
3.062	-0.014496	-0.010223	0.036011	0.02533	-0.026093	0.080872	0.28381	0.015869	-0.11871	-0.015564	-0.12314	-0.004578	0.21729	0.030975	0.11032	-0.015564	0.021057	-0.25482	-0.14252	-0.09613	0.12817	0.072174	-0.42374	0.017548	0.005341	0.005951	0.024719	-0.028839	-0.041962	0.1088	-0.001984	-0.015259
3.063	-0.02655	-0.005035	0.043793	0.01236	-0.072937	0.04776	0.28763	0.014954	-0.21423	-0.022278	-0.15747	-0.008698	0.24094	-0.042419	0.04715	-0.005493	0.002441	-0.28656	-0.12009	-0.018921	-0.02243	0.097656	-0.39612	0.05661	0.010986	0.017548	-0.004425	-0.031586	0.012512	-0.071716	-0.009766	-0.014038
3.064	-0.031891	0.01358	0.018158	0.015259	-0.091248	0.036926	0.24078	0.010529	-0.33798	-0.005646	-0.21881	-0.012665	0.13412	0.010071	-0.48553	-0.026703	0.007782	-0.26291	-0.10422	-0.034943	-0.093994	0.12619	-0.3772	0.017395	-0.033264	0.008087	0.053864	-0.030212	-0.014496	-0.11597	-0.004883	-0.008087
3.065	-0.017242	0.033722	0.035248	0.026855	-0.084076	0.057831	0.18936	0.004272	-0.25543	0.001984	-0.068512	-0.019226	0.15595	0.032806	-0.14862	-0.019836	-0.006561	-0.25909	-0.17166	-0.04776	-0.016327	0.11322	-0.41916	0.085297	0.000305	0.007324	0.10422	-0.030518	-0.006104	-0.050049	-0.00351	-0.005951
3.066	-0.005798	0.019989	0.018463	0.024109	-0.013733	0.002899	0.18951	0	-0.19241	-0.003662	0.075531	-0.021515	0.075531	0.067902	-0.22034	-0.014954	-0.016785	-0.18662	-0.11536	-0.03891	0.059357	0.00061	-0.39398	-0.009613	-0.010529	0.008698	0.067596	-0.033112	-0.033722	-0.12436	0.005646	0.002747
3.067	-0.003815	0.000153	-0.001526	0.029144	-0.038452	-0.058289	0.14587	0.000458	-0.24292	0.014191	0.1059	-0.026245	-0.12543	0.025635	-0.22614	-0.008545	-0.008698	-0.24811	-0.080719	0.009003	-0.19424	0.048828	-0.35294	-0.002899	-0.017242	0.007477	0.031433	-0.031738	-0.063019	-0.093079	-0.002136	0.003357
3.068	0.007629	0.001221	0.015411	0.012054	-0.024872	-0.084381	0.15747	0.006256	-0.38177	-0.00946	0.075836	-0.016632	-0.1944	-0.001221	0.075989	-0.004578	0.002289	-0.2504	-0.06485	0.013123	-0.028076	-0.031433	-0.33463	-0.010529	-0.017242	0.018311	-0.041962	-0.031281	-0.011444	-0.071411	-0.003662	0.000153
3.069	-0.008698	0.043793	0.026093	0.012512	-0.035553	0.001221	0.16769	0.014648	-0.49957	-0.059052	0.04837	-0.01709	-0.16083	0.16174	0.043488	-0.005951	0.022278	-0.20706	0.040894	0.002441	0.15945	0.050354	-0.3447	-0.024567	-0.011444	0.035706	-0.053101	-0.025482	0.023804	-0.18372	-0.000458	-0.000916
3.07	-0.019073	0.02533	0.00412	0.007935	-0.022583	0.11734	0.13168	0.005188	-0.33066	-0.076904	0.06424	-0.018311	0.009613	0.18265	0.27603	-0.016632	-0.010376	-0.18204	-0.031586	0.037842	0.09491	0.094147	-0.38269	0.02533	0.009003	0.017548	-0.090179	-0.024872	0.019989	-0.52689	-0.002441	-0.007019
3.071	-0.021667	-0.003662	-0.0383	0.003815	0.056	0.20355	0.0737	-0.002289	-0.23727	-0.048828	0.074615	-0.018463	-0.12604	0.08606	0.77606	-0.014954	-0.001678	-0.24063	-0.14679	0.068359	0.09491	0.023804	-0.33646	0.05249	0.031281	0.003052	-0.031586	-0.019684	0.168	-0.65735	-0.001984	-0.002136
3.072	-0.014648	0.021973	0.080261	0.007324	-0.027771	0.14328	0.018921	-0.011749	-0.17899	-0.029755	-0.021515	-0.012207	-0.21408	0.068054	-0.019073	-0.012054	0.019073	-0.242	-0.12558	0.040131	0.11429	-0.13443	-0.31708	-0.014954	-0.010986	-0.010376	0.00412	-0.017395	0.40039	-0.31754	0	-0.013275
